<?xml version="1.0" encoding="utf-8"?>
<!-- Generator: Adobe Illustrator 16.0.0, SVG Export Plug-In . SVG Version: 6.00 Build 0)  -->
<!DOCTYPE svg PUBLIC "-//W3C//DTD SVG 1.1//EN" "http://www.w3.org/Graphics/SVG/1.1/DTD/svg11.dtd">
<svg version="1.1" id="Layer_1" xmlns="http://www.w3.org/2000/svg" xmlns:xlink="http://www.w3.org/1999/xlink" x="0px" y="0px"
	 width="31.092px" height="31.133px" viewBox="0 0 31.092 31.133" enable-background="new 0 0 31.092 31.133" xml:space="preserve">
<circle fill="#373737" cx="15.546" cy="15.566" r="15.572"/>
<g>
	<path fill="#FFFFFF" d="M12.328,13.066c0.64,0,1.279,0.244,1.768,0.732l6.438,6.438c0.976,0.977,0.976,2.559-0.001,3.535
		c-0.976,0.977-2.559,0.977-3.535,0l-6.437-6.438c-0.977-0.977-0.977-2.56,0-3.535C11.048,13.311,11.688,13.066,12.328,13.066z"/>
	<path fill="#FFFFFF" d="M18.765,6.629c0.64,0,1.279,0.244,1.768,0.732c0.977,0.976,0.977,2.559,0.001,3.535l-6.438,6.438
		c-0.977,0.977-2.559,0.977-3.535,0s-0.977-2.559,0-3.535l6.437-6.438C17.485,6.873,18.125,6.629,18.765,6.629z"/>
</g>
</svg>
