<?xml version="1.0" encoding="utf-8"?>
<!-- Generator: Adobe Illustrator 16.0.0, SVG Export Plug-In . SVG Version: 6.00 Build 0)  -->
<!DOCTYPE svg PUBLIC "-//W3C//DTD SVG 1.1//EN" "http://www.w3.org/Graphics/SVG/1.1/DTD/svg11.dtd">
<svg version="1.1" id="Layer_1" xmlns="http://www.w3.org/2000/svg" xmlns:xlink="http://www.w3.org/1999/xlink" x="0px" y="0px"
	 width="31.092px" height="31.133px" viewBox="0 0 31.092 31.133" enable-background="new 0 0 31.092 31.133" xml:space="preserve">
<circle fill="#373737" cx="15.546" cy="15.566" r="15.572"/>
<g>
	<path fill="#FFFFFF" d="M18.765,18.066c-0.64,0-1.279-0.244-1.768-0.732l-6.438-6.438c-0.976-0.976-0.976-2.559,0-3.536
		c0.976-0.976,2.559-0.976,3.536,0l6.437,6.438c0.977,0.976,0.977,2.56,0,3.535C20.044,17.822,19.404,18.066,18.765,18.066z"/>
	<path fill="#FFFFFF" d="M12.327,24.504c-0.64,0-1.279-0.244-1.768-0.732c-0.977-0.976-0.977-2.559,0-3.535l6.438-6.438
		c0.977-0.977,2.559-0.976,3.535,0c0.977,0.977,0.977,2.559,0,3.536l-6.437,6.438C13.607,24.26,12.967,24.504,12.327,24.504z"/>
</g>
</svg>
